<?xml version="1.0" ?><svg id="Layer_1_1_" style="enable-background:new 0 0 64 64;" version="1.1" viewBox="0 0 64 64" xml:space="preserve" xmlns="http://www.w3.org/2000/svg" xmlns:xlink="http://www.w3.org/1999/xlink"><g><g><path d="M35.524,41.736L32,62h4l4-8l-2-3l3-2l1-9l-0.66-0.237C39.855,40.683,37.841,41.38,35.524,41.736z" style="fill:#00F4CB;"/></g><g><path d="M28.476,41.736L32,62h-4l-4-8l2-3l-3-2l-1-9l0.66-0.237C24.145,40.683,26.159,41.38,28.476,41.736z    " style="fill:#00F4CB;"/></g><g><path d="M42.452,7H21.548c-1.073,1.328-1.909,2.87-2.421,4.578L19,12h26l-0.127-0.422    C44.361,9.87,43.525,8.328,42.452,7z" style="fill:#00F4CB;"/></g><g><path d="M48.214,40.685L47,40.28V17h2v-1c0-2.101-1.306-3.896-3.146-4.635l-0.022-0.074C43.984,5.136,38.426,1,32,1    S20.016,5.136,18.168,11.291l-0.022,0.074C16.306,12.104,15,13.899,15,16v1h2v13.049C16.745,30.017,16.486,30,16.224,30    c-0.956,0-1.912,0.226-2.767,0.653l-3.799,1.899l0.78,1.561c0.479,0.958,1.157,1.762,1.962,2.393    c-0.816,0.637-1.49,1.436-1.962,2.381l-0.78,1.561l3.547,1.773C11.815,43.523,11,45.355,11,47.324V63h42V47.324    C53,44.307,51.077,41.638,48.214,40.685z M51,47.324V53h-5.011C45.99,52.936,46,52.873,46,52.81c0-2.036-0.597-4.008-1.727-5.702    l-0.441-0.662l-1.664,1.109l0.441,0.662C43.519,49.582,44,51.17,44,52.81c0,1.278-0.302,2.559-0.874,3.702L42,58.764V61h-8.791    l3.518-18.468c1.971-0.403,3.695-1.053,5.054-1.884l5.802,1.934C49.626,43.263,51,45.169,51,47.324z M29.415,40.832l-0.059,0.01    C24.325,40.248,21,38.027,21,36c0-1.089,0.891-2.179,2.464-3.075C25.482,35.408,28.558,37,32,37s6.518-1.592,8.536-4.075    C42.109,33.821,43,34.911,43,36c0,2.365-4.518,5-11,5c-0.903,0-1.763-0.056-2.582-0.15L29.415,40.832z M21.042,26.829    C19.859,26.427,19,25.317,19,24c0-1.302,0.839-2.402,2-2.816V26C21,26.28,21.021,26.554,21.042,26.829z M29.765,17    c-2.076,1.141-4.393,1.808-6.765,1.957V17H29.765z M43,21.184c1.161,0.414,2,1.514,2,2.816c0,1.317-0.859,2.427-2.042,2.829    C42.979,26.554,43,26.28,43,26V21.184z M34.693,17h4.65c-1.378,0.968-2.948,1.608-4.615,1.867    C34.87,18.253,34.857,17.61,34.693,17z M23,20.957c3.508-0.197,6.905-1.419,9.736-3.504c0.197,0.629,0.055,1.342-0.443,1.84    L30.586,21H33c2.937,0,5.719-0.972,8-2.747V26c0,4.963-4.038,9-9,9s-9-4.037-9-9V20.957z M32,43c0.903,0,1.781-0.048,2.627-0.138    l-2.572,13.5l-2.291-13.469C30.491,42.959,31.234,43,32,43z M43.634,39.158C44.503,38.213,45,37.145,45,36    c0-1.791-1.209-3.467-3.346-4.733c0.399-0.728,0.708-1.51,0.935-2.326c0.9-0.107,1.722-0.445,2.411-0.966V36v3.613L43.634,39.158z     M45,20.026c-0.584-0.442-1.257-0.773-2-0.924V17h2V20.026z M32,3c5.229,0,9.787,3.18,11.618,8H20.382C22.213,6.18,26.771,3,32,3z     M20,13h24c1.304,0,2.416,0.836,2.829,2H17.171C17.584,13.836,18.696,13,20,13z M21,17v2.101c-0.743,0.152-1.416,0.482-2,0.924V17    H21z M19,27.974c0.689,0.521,1.511,0.859,2.411,0.966c0.227,0.816,0.536,1.598,0.935,2.326c-0.51,0.302-0.969,0.626-1.368,0.971    c-0.55-0.663-1.224-1.194-1.979-1.573V27.974z M14.352,32.442C14.93,32.153,15.578,32,16.224,32c1.369,0,2.638,0.667,3.422,1.784    c-0.317,0.531-0.51,1.087-0.591,1.658l-0.295,0.13C18.116,35.855,17.432,36,16.728,36c-1.833,0-3.488-0.973-4.38-2.556    L14.352,32.442z M14.383,37.586C15.124,37.846,15.91,38,16.728,38c0.887,0,1.748-0.172,2.568-0.495    c0.165,0.421,0.395,0.827,0.69,1.214l-0.278,0.417C18.93,40.303,17.627,41,16.224,41c-0.646,0-1.294-0.153-1.872-0.442    l-2.005-1.002C12.823,38.713,13.523,38.039,14.383,37.586z M15.573,42.962C15.789,42.985,16.007,43,16.224,43    c2.074,0,3.998-1.03,5.147-2.755l0.079-0.118c1.532,1.144,3.693,2.017,6.238,2.485L30.816,61H22v-2.236l-1.126-2.252    C20.302,55.368,20,54.088,20,52.81c0-1.64,0.481-3.228,1.391-4.593l0.441-0.662l-1.664-1.109l-0.441,0.662    C18.597,48.802,18,50.773,18,52.81c0,0.064,0.01,0.127,0.011,0.19H13v-5.676C13,45.498,13.985,43.844,15.573,42.962z M13,55h5.246    c0.182,0.833,0.458,1.645,0.839,2.406L20,59.236V61h-7V55z M44,61v-1.764l0.915-1.83c0.381-0.762,0.657-1.574,0.839-2.406H51v6H44    z"/><circle cx="27" cy="23" r="1"/><circle cx="37" cy="23" r="1"/><path d="M32,32c2.206,0,4-1.794,4-4h-2c0,1.103-0.897,2-2,2s-2-0.897-2-2h-2C28,30.206,29.794,32,32,32z"/></g></g></svg>